<svg width="96" height="96" viewBox="0 0 96 96" fill="none" xmlns="http://www.w3.org/2000/svg">
  <defs>
    <linearGradient id="g" x1="16" y1="16" x2="80" y2="80" gradientUnits="userSpaceOnUse">
      <stop stop-color="#7DD3FC"/>
      <stop offset="1" stop-color="#A5E8FF"/>
    </linearGradient>
  </defs>
  <path d="M48 10C30.3269 10 16 24.3269 16 42c0 12.118 6.7564 22.656 16.7 27.93.7.37 1.3 1.08 1.42 1.86l1.08 7.11c.18 1.18 1.2 2.06 2.39 2.06h20.84c1.19 0 2.21-.88 2.39-2.06l1.08-7.11c.12-.78.72-1.49 1.42-1.86C73.2436 64.656 80 54.118 80 42 80 24.3269 65.6731 10 48 10Z" fill="#0B0D10" stroke="rgba(255,255,255,0.12)" stroke-width="2"/>
  <path d="M48 22c-9.94 0-18 8.06-18 18 0 7.18 4.2 13.38 10.3 16.3.58.28.98.86 1.08 1.49L42 62h12l.62-4.21c.1-.63.5-1.21 1.08-1.49C61.8 53.38 66 47.18 66 40c0-9.94-8.06-18-18-18Z" fill="url(#g)" opacity="0.95"/>
  <path d="M48 30c-5.523 0-10 4.477-10 10 0 4.06 2.42 7.55 5.9 9.1.45.2.76.64.84 1.12L45.2 54h5.6l.46-3.78c.08-.48.39-.92.84-1.12C55.58 47.55 58 44.06 58 40c0-5.523-4.477-10-10-10Z" fill="#0B0D10" opacity="0.9"/>
</svg>
